<?xml version="1.0" encoding="UTF-8"?><svg id="Layer_2" xmlns="http://www.w3.org/2000/svg" viewBox="0 0 750.67 522.96"><g id="_02"><path d="M347.09,335.01c63.37-1.63,113.7-27.74,113.82-59.91.12-33.37-53.85-60.62-120.55-60.86-50.92-.18-94.53,15.42-112.37,37.66l55.3,52.64,63.81,30.47ZM347.1,276.73c-17.23,0-31.19-6.07-31.19-13.55s13.96-13.55,31.19-13.55,31.19,6.07,31.19,13.55-13.97,13.55-31.19,13.55Z" fill="#8db259"/><path d="M237.29,242.54c32.26,62.01,107.75,90.62,174.21,69.32,14.28-4.58,27.31-10.88,39.03-19.87,3.92-3.01,7.51-5.04,12.35-4.18,4.79,1.19,8.35,4.92,9.01,9.52.81,5.64-1.77,9.47-6.28,12.64-19.82,13.95-41.03,24.82-65.02,29.94-54.36,11.59-111.16-4.45-151.52-42.42-20.14-18.95-34.6-41.64-43.56-67.75-31.47-91.75,21.68-191.39,112.6-221.27,72.52-23.83,150.98,4,194.65,65.97,4.47,6.34,3.61,14.01-2.13,17.93-6.35,4.33-13.34,2.19-17.6-3.8-32.01-44.87-86.56-68.73-141.23-61.71-72.42,9.3-127.4,68.67-131.53,141.64-1.46,25.82,5.28,51.47,17.02,74.03Z" fill="#27542a"/><path d="M363.49,155.01c-1.26.48-3.78.33-4.35-.29s-1.35-2.52-1.35-3.39l.02-61c0-2.35,2.63-4.3,4.87-3.33l68.3,29.4c2.71,1.17,4.89,2.72,5.38,4.98.52,2.39-.54,6.18-2.96,7.1l-69.91,26.52Z" fill="#27542a"/><path d="M539.25,157.81l-52.75.11c-5.41.01-8.8-4.42-8.54-9.04.28-4.99,4.07-8.42,9.48-8.4l52.22.12c4.36.01,7.26,4.85,7.29,8.21.04,3.85-2.57,8.98-7.71,8.99Z" fill="#8db259"/><path d="M538.97,198.26l-53.38-.03c-4.9,0-7.74-4.52-7.62-8.47.13-4.25,3.48-8.39,8.54-8.4l51.28-.14c4.9-.01,8.56,3.18,9.13,7.75.47,3.78-2.54,9.3-7.95,9.29Z" fill="#8db259"/><path d="M504.58,248.17l-11.57.04c-3.43.01-6.18-3.49-6.18-6.66l-.02-10.69c0-2.7,2.54-6.88,5.6-6.9l11.81-.09c4-.03,6.55,3.66,6.55,7.24v10.27c0,3.33-2.5,6.78-6.19,6.79Z" fill="#27542a"/><path d="M537.47,282.28l-10.11.09c-4.69.04-7.47-3.14-7.46-7.66l.04-9.53c.02-4.39,2.87-7.59,7.41-7.54l10.66.11c2.54.03,5.84,3.71,5.84,6.2v11.81c0,3.3-2.7,6.48-6.38,6.51Z" fill="#27542a"/><path d="M504.24,282.23h-11.13c-3.63-.01-6.26-3.2-6.26-6.68v-10.25c-.02-4.89,3.46-7.75,8.15-7.72l7.78.06c3.62.03,7.84,2.33,7.86,6.56l.04,11.55c.01,3.33-2.86,6.48-6.44,6.48Z" fill="#27542a"/><path d="M538.47,248.05l-11.14.4c-4.69.17-7.46-3.67-7.45-7.87l.03-9.6c.01-4.34,3.09-7.15,7.41-7.13l9.57.03c4.1.01,6.96,3.01,6.97,7.06l.03,10.74c0,2.45-2.53,6.26-5.43,6.37Z" fill="#27542a"/><rect x="340.16" y="86.75" width="13.86" height="176.43" rx="6.93" ry="6.93" fill="#242c33"/><g id="Text"><path d="M0,521.5v-105.58h44.58c7.53,0,14.08,1.27,19.65,3.81,5.57,2.54,9.85,6.11,12.83,10.71,2.98,4.6,4.47,9.97,4.47,16.13s-1.49,11.39-4.47,15.98c-2.98,4.6-7.26,8.16-12.83,10.71-5.57,2.54-12.12,3.81-19.65,3.81H14.96v-14.52h29.04c6.16,0,10.87-1.42,14.15-4.25,3.27-2.83,4.91-6.75,4.91-11.73s-1.61-8.82-4.84-11.51c-3.23-2.69-7.97-4.03-14.22-4.03h-24.93v90.48H0ZM60.42,521.5l-47.07-53.97h21.41l52.06,53.97h-26.4Z" fill="#242c33"/><path d="M122.3,522.96c-7.92,0-14.88-1.66-20.9-4.99-6.01-3.32-10.68-7.94-14-13.86-3.32-5.91-4.99-12.68-4.99-20.31s1.66-14.32,4.99-20.09c3.32-5.77,7.99-10.29,14-13.56,6.01-3.27,12.98-4.91,20.9-4.91s15.01,1.64,20.97,4.91c5.96,3.28,10.61,7.8,13.93,13.56,3.32,5.77,4.99,12.46,4.99,20.09s-1.69,14.4-5.06,20.31c-3.37,5.92-8.04,10.54-14,13.86-5.96,3.32-12.91,4.99-20.82,4.99ZM122.3,508.15c3.91,0,7.43-1,10.56-3.01,3.13-2,5.57-4.84,7.33-8.51,1.76-3.67,2.64-7.99,2.64-12.98,0-7.33-1.93-13.1-5.79-17.3-3.86-4.2-8.78-6.31-14.74-6.31s-10.9,2.1-14.81,6.31c-3.91,4.2-5.87,9.97-5.87,17.3,0,4.99.9,9.31,2.71,12.98,1.81,3.67,4.25,6.5,7.33,8.51,3.08,2.01,6.62,3.01,10.63,3.01Z" fill="#242c33"/><path d="M194.16,522.96c-5.18,0-9.66-1.1-13.42-3.3-3.76-2.2-6.65-5.21-8.65-9.02-2-3.81-3.01-8.11-3.01-12.9v-51.03h18.48v47.22c0,4.6,1.15,8.07,3.45,10.41,2.3,2.35,5.55,3.52,9.75,3.52,3.81,0,7.16-.88,10.05-2.64,2.88-1.76,5.18-4.23,6.89-7.41,1.71-3.18,2.57-6.77,2.57-10.78l1.91,17.89c-2.45,5.48-6.09,9.85-10.93,13.12-4.84,3.28-10.54,4.91-17.08,4.91ZM220.84,521.5v-17.6h-.59v-57.19h18.62v74.79h-18.04Z" fill="#242c33"/><path d="M252.66,521.5v-74.79h18.04v17.6h.44v57.19h-18.48ZM305.16,521.5v-47.22c0-4.59-1.17-8.07-3.52-10.41-2.35-2.35-5.77-3.52-10.27-3.52-3.91,0-7.41.88-10.48,2.64-3.08,1.76-5.48,4.2-7.19,7.33-1.71,3.13-2.57,6.75-2.57,10.85l-1.91-17.89c2.54-5.47,6.26-9.85,11.14-13.12,4.89-3.27,10.75-4.91,17.6-4.91,8.11,0,14.44,2.3,18.99,6.89,4.55,4.6,6.82,10.71,6.82,18.33v51.03h-18.62Z" fill="#242c33"/><path d="M389.92,521.5v-16.86l1.47.29c-1.27,5.48-4.35,9.85-9.24,13.12-4.89,3.28-10.71,4.91-17.45,4.91s-12.78-1.59-17.82-4.77c-5.04-3.18-8.92-7.65-11.66-13.42-2.74-5.77-4.11-12.56-4.11-20.38s1.42-14.81,4.25-20.68c2.83-5.87,6.82-10.41,11.95-13.64,5.13-3.23,11.12-4.84,17.96-4.84s12.85,1.69,17.45,5.06c4.59,3.37,7.43,8.04,8.51,14.01l-1.91.15v-48.54h18.62v105.58h-18.04ZM370.13,507.86c5.96,0,10.73-2.08,14.3-6.23,3.57-4.15,5.35-10,5.35-17.52s-1.81-13.34-5.43-17.45c-3.62-4.11-8.41-6.16-14.37-6.16s-10.61,2.08-14.22,6.23c-3.62,4.16-5.43,10-5.43,17.52s1.81,13.35,5.43,17.45c3.62,4.11,8.41,6.16,14.37,6.16Z" fill="#242c33"/><path d="M421.74,521.5v-74.79h18.04v17.6h.44v57.19h-18.48ZM472.04,521.5v-48.25c0-4.4-1.1-7.65-3.3-9.75-2.2-2.1-5.3-3.15-9.31-3.15-3.52,0-6.75.83-9.68,2.49-2.93,1.66-5.26,4.01-6.97,7.04-1.71,3.03-2.57,6.55-2.57,10.56l-1.91-17.16c2.54-5.47,6.21-9.85,11-13.12,4.79-3.27,10.36-4.91,16.72-4.91,7.63,0,13.64,2.18,18.04,6.53,4.4,4.35,6.6,9.95,6.6,16.79v52.94h-18.62ZM522.34,521.5v-48.25c0-4.4-1.08-7.65-3.23-9.75-2.15-2.1-5.23-3.15-9.24-3.15-3.62,0-6.89.83-9.83,2.49-2.93,1.66-5.23,4.01-6.89,7.04-1.66,3.03-2.49,6.55-2.49,10.56l-3.23-17.16c2.44-5.47,6.16-9.85,11.15-13.12,4.99-3.27,10.75-4.91,17.3-4.91,7.82,0,13.95,2.23,18.4,6.67,4.45,4.45,6.67,10.34,6.67,17.67v51.91h-18.62Z" fill="#242c33"/><path d="M573.08,522.96c-7.53,0-13.52-1.88-17.96-5.65-4.45-3.76-6.67-8.82-6.67-15.18,0-6.84,2.49-12.27,7.48-16.28,4.99-4.01,12.03-6.7,21.12-8.07l23.32-3.52v11.73l-20.24,3.08c-4.4.69-7.7,1.91-9.9,3.67-2.2,1.76-3.3,4.2-3.3,7.33,0,2.84,1.03,5.01,3.08,6.53,2.05,1.52,4.89,2.27,8.51,2.27,5.28,0,9.68-1.32,13.2-3.96,3.52-2.64,5.28-5.87,5.28-9.68l2.05,11.29c-1.96,5.38-5.16,9.46-9.61,12.25-4.45,2.79-9.9,4.18-16.35,4.18ZM599.04,521.5c-.49-1.95-.86-4.11-1.1-6.45-.25-2.35-.37-5.18-.37-8.51h-.59v-35.49c0-3.91-1.1-6.87-3.3-8.87-2.2-2-5.55-3.01-10.04-3.01s-7.9.81-10.49,2.42c-2.59,1.61-4.18,3.94-4.77,6.97h-17.74c.78-6.94,4.11-12.56,9.97-16.86,5.87-4.3,13.73-6.45,23.61-6.45s18.04,2.32,23.32,6.97c5.28,4.64,7.92,11.46,7.92,20.46v33.87c0,2.35.17,4.74.51,7.19.34,2.44.85,5.04,1.54,7.77h-18.48Z" fill="#242c33"/><path d="M628.37,521.5v-74.79h18.04v18.04h.44v56.75h-18.48ZM646.85,482.49l-1.91-17.74c1.76-6.35,4.74-11.19,8.95-14.52,4.2-3.32,9.24-4.99,15.1-4.99,2.05,0,3.52.2,4.4.59v17.45c-.49-.19-1.17-.32-2.05-.37-.88-.05-1.96-.07-3.23-.07-7.14,0-12.47,1.56-15.98,4.69-3.52,3.13-5.28,8.12-5.28,14.96Z" fill="#242c33"/><path d="M679.69,521.5v-106.61h18.48v106.61h-18.48ZM727.94,521.5l-34.02-38.86,32.99-35.93h22.29l-38.13,39.3,1.03-6.89,38.57,42.38h-22.73Z" fill="#242c33"/></g></g></svg>