<?xml version="1.0" encoding="UTF-8"?><svg id="Layer_2" xmlns="http://www.w3.org/2000/svg" viewBox="0 0 883.63 866.14"><g id="_03"><path d="M377.5,843.34c1.52.72,3.19,1.08,4.87,1.03,158.52-4.74,284.04-70.29,284.33-150.94.3-84.12-135.75-152.8-303.88-153.4-122.21-.44-227.73,35.21-276.37,87.02-3.97,4.23-3.78,10.86.42,14.86l130.89,124.58c.8.77,1.72,1.4,2.73,1.88l157.01,74.97ZM379.81,697.54c-43.42,0-78.62-15.29-78.62-34.16s35.2-34.16,78.62-34.16,78.62,15.29,78.62,34.16-35.2,34.16-78.62,34.16Z" fill="#8db259"/><path d="M103.03,611.36c81.31,156.3,271.6,228.43,439.12,174.74,36-11.54,68.84-27.43,98.38-50.09,9.73-7.47,18.65-12.55,30.55-10.63.38.06.76.14,1.13.24,11.79,3.14,20.52,12.43,22.16,23.86,2.04,14.23-4.46,23.88-15.82,31.87-49.95,35.15-103.41,62.57-163.88,75.46-137.02,29.21-280.2-11.21-381.93-106.93-50.76-47.77-87.22-104.95-109.79-170.77C-56.37,347.83,77.59,96.67,306.76,21.36c182.8-60.07,380.56,10.08,490.66,166.3,11.26,15.98,9.1,35.31-5.38,45.2-16,10.92-33.61,5.52-44.38-9.57-80.68-113.11-218.18-173.25-355.98-155.55C209.14,91.18,70.55,240.83,60.14,424.76c-3.68,65.07,13.31,129.74,42.89,186.6Z" fill="#27542a"/><path d="M421.12,390.72c-3.18,1.21-9.54.84-10.96-.73-1.42-1.57-3.4-6.35-3.4-8.55l.05-153.75c0-5.91,6.62-10.83,12.28-8.39l172.15,74.11c6.82,2.94,12.33,6.87,13.57,12.56,1.31,6.03-1.36,15.57-7.46,17.89l-176.22,66.86Z" fill="#27542a"/><path d="M864.17,397.79l-132.95.29c-13.64.03-22.19-11.14-21.53-22.78.71-12.59,10.26-21.21,23.9-21.18l131.63.31c10.99.03,18.31,12.22,18.39,20.7.09,9.69-6.49,22.64-19.44,22.67Z" fill="#8db259"/><path d="M863.45,499.75l-134.55-.09c-12.35,0-19.51-11.39-19.21-21.35.32-10.71,8.78-21.14,21.53-21.17l129.26-.35c12.36-.03,21.57,8.01,23.02,19.53,1.2,9.54-6.4,23.44-20.05,23.43Z" fill="#8db259"/><path d="M776.77,625.54l-29.17.1c-8.64.03-15.58-8.8-15.59-16.79l-.04-26.96c0-6.79,6.41-17.33,14.13-17.39l29.76-.22c10.08-.07,16.5,9.24,16.51,18.25v25.88c.01,8.39-6.31,17.1-15.6,17.13Z" fill="#27542a"/><path d="M859.67,711.53l-25.49.24c-11.82.11-18.84-7.93-18.79-19.3l.09-24.01c.04-11.06,7.23-19.13,18.68-19.01l26.86.29c6.4.07,14.73,9.35,14.73,15.62v29.76c0,8.31-6.8,16.33-16.07,16.41Z" fill="#27542a"/><path d="M775.91,711.39l-28.04-.02c-9.15,0-15.78-8.04-15.79-16.81l-.03-25.83c-.01-12.33,8.74-19.54,20.57-19.45l19.6.15c9.11.07,19.77,5.87,19.81,16.52l.11,29.12c.03,8.41-7.21,16.33-16.24,16.32Z" fill="#27542a"/><path d="M862.19,625.25l-28.07,1.01c-11.83.43-18.81-9.25-18.78-19.84l.07-24.19c.03-10.93,7.78-18.02,18.69-17.98l24.13.09c10.34.04,17.55,7.58,17.58,17.8l.08,27.07c.02,6.18-6.37,15.79-13.7,16.05Z" fill="#27542a"/><rect x="362.34" y="218.66" width="34.95" height="444.73" rx="17.47" ry="17.47" fill="#242c33"/></g></svg>