<?xml version="1.0" encoding="UTF-8"?><svg id="Layer_2" xmlns="http://www.w3.org/2000/svg" viewBox="0 0 1398.25 361.7"><g id="_04"><path d="M158.61,352.64c66.7-1.71,119.69-29.2,119.81-63.06.13-35.13-56.69-63.81-126.9-64.06-53.6-.19-99.5,16.24-118.29,39.65l58.21,55.41,67.16,32.07ZM158.61,291.3c-18.13,0-32.83-6.39-32.83-14.26s14.7-14.26,32.83-14.26,32.83,6.39,32.83,14.26-14.7,14.26-32.83,14.26Z" fill="#242c33"/><path d="M43.02,255.31c33.96,65.27,113.42,95.39,183.38,72.97,15.03-4.82,28.75-11.45,41.08-20.92,4.13-3.17,7.91-5.31,13-4.4,5.04,1.25,8.79,5.18,9.49,10.02.85,5.94-1.86,9.97-6.61,13.31-20.86,14.68-43.18,26.13-68.44,31.51-57.22,12.2-117.01-4.68-159.5-44.66-21.2-19.95-36.42-43.83-45.85-71.32C-23.54,145.26,32.4,40.37,128.1,8.92c76.34-25.09,158.92,4.21,204.9,69.45,4.7,6.67,3.8,14.75-2.25,18.87-6.68,4.56-14.04,2.3-18.53-4-33.69-47.23-91.11-72.35-148.66-64.96C87.34,38.08,29.46,100.57,25.11,177.38c-1.54,27.17,5.56,54.18,17.91,77.93Z" fill="#242c33"/><path d="M175.86,163.17c-1.33.5-3.98.35-4.58-.31s-1.42-2.65-1.42-3.57l.02-64.21c0-2.47,2.76-4.52,5.13-3.5l71.89,30.95c2.85,1.23,5.15,2.87,5.67,5.25.55,2.52-.57,6.5-3.12,7.47l-73.59,27.92Z" fill="#242c33"/><path d="M360.88,166.12l-55.52.12c-5.7.01-9.27-4.65-8.99-9.51.3-5.26,4.29-8.86,9.98-8.85l54.97.13c4.59.01,7.64,5.1,7.68,8.65.04,4.05-2.71,9.46-8.12,9.47Z" fill="#242c33"/><path d="M360.58,208.7l-56.19-.04c-5.16,0-8.15-4.76-8.02-8.92.13-4.47,3.67-8.83,8.99-8.84l53.98-.15c5.16-.01,9.01,3.35,9.61,8.16.5,3.98-2.67,9.79-8.37,9.78Z" fill="#242c33"/><path d="M324.38,261.23l-12.18.04c-3.61.01-6.51-3.68-6.51-7.01l-.02-11.26c0-2.84,2.68-7.24,5.9-7.26l12.43-.09c4.21-.03,6.89,3.86,6.89,7.62v10.81c0,3.5-2.63,7.14-6.52,7.15Z" fill="#242c33"/><path d="M359,297.14l-10.64.1c-4.94.05-7.87-3.31-7.85-8.06l.04-10.03c.02-4.62,3.02-7.99,7.8-7.94l11.22.12c2.67.03,6.15,3.91,6.15,6.52v12.43c0,3.47-2.84,6.82-6.71,6.85Z" fill="#242c33"/><path d="M324.02,297.08h-11.71c-3.82-.01-6.59-3.37-6.59-7.03v-10.79c-.02-5.15,3.64-8.16,8.58-8.12l8.19.06c3.81.03,8.26,2.45,8.27,6.9l.05,12.16c.01,3.51-3.01,6.82-6.78,6.82Z" fill="#242c33"/><path d="M360.05,261.11l-11.72.42c-4.94.18-7.85-3.86-7.84-8.29l.03-10.1c.01-4.57,3.25-7.53,7.8-7.51l10.08.04c4.32.02,7.33,3.17,7.34,7.43l.03,11.3c0,2.58-2.66,6.59-5.72,6.7Z" fill="#242c33"/><rect x="151.31" y="91.31" width="14.59" height="185.72" rx="7.3" ry="7.3" fill="#242c33"/><g id="Text"><path d="M461.9,266.83v-131.7h55.61c9.39,0,17.56,1.59,24.51,4.76,6.95,3.17,12.28,7.62,16.01,13.35,3.72,5.73,5.58,12.44,5.58,20.12s-1.86,14.21-5.58,19.94c-3.72,5.73-9.05,10.18-16.01,13.35-6.95,3.17-15.12,4.76-24.51,4.76h-36.95v-18.11h36.22c7.68,0,13.56-1.77,17.65-5.3,4.08-3.54,6.13-8.41,6.13-14.63s-2.01-11-6.04-14.36c-4.02-3.35-9.94-5.03-17.74-5.03h-31.1v112.86h-23.78ZM537.26,266.83l-58.72-67.31h26.71l64.94,67.31h-32.93Z" fill="#242c33"/><path d="M614.45,268.66c-9.88,0-18.57-2.07-26.07-6.22-7.5-4.14-13.32-9.91-17.47-17.29-4.15-7.38-6.22-15.82-6.22-25.33s2.07-17.86,6.22-25.06c4.14-7.19,9.97-12.83,17.47-16.92,7.5-4.08,16.19-6.13,26.07-6.13s18.72,2.04,26.16,6.13c7.44,4.09,13.23,9.73,17.38,16.92,4.14,7.2,6.22,15.55,6.22,25.06s-2.1,17.96-6.31,25.33c-4.21,7.38-10.03,13.14-17.47,17.29-7.44,4.15-16.1,6.22-25.97,6.22ZM614.45,250.18c4.88,0,9.27-1.25,13.17-3.75,3.9-2.5,6.95-6.04,9.15-10.61,2.2-4.57,3.29-9.97,3.29-16.19,0-9.15-2.41-16.34-7.23-21.58-4.82-5.24-10.95-7.87-18.38-7.87s-13.6,2.62-18.48,7.87c-4.88,5.24-7.32,12.44-7.32,21.58,0,6.22,1.13,11.62,3.38,16.19,2.26,4.57,5.3,8.11,9.15,10.61,3.84,2.5,8.26,3.75,13.26,3.75Z" fill="#242c33"/><path d="M704.08,268.66c-6.47,0-12.04-1.37-16.74-4.12-4.7-2.74-8.29-6.49-10.79-11.25-2.5-4.76-3.75-10.12-3.75-16.1v-63.66h23.05v58.9c0,5.73,1.43,10.06,4.3,12.99,2.86,2.93,6.92,4.39,12.16,4.39,4.76,0,8.93-1.1,12.53-3.29,3.6-2.2,6.46-5.27,8.6-9.24,2.13-3.96,3.2-8.44,3.2-13.45l2.38,22.32c-3.05,6.83-7.59,12.29-13.63,16.37-6.04,4.09-13.14,6.13-21.31,6.13ZM737.37,266.83v-21.95h-.73v-71.34h23.23v93.29h-22.5Z" fill="#242c33"/><path d="M777.06,266.83v-93.29h22.5v21.95h.55v71.34h-23.05ZM842.55,266.83v-58.9c0-5.73-1.46-10.06-4.39-12.99-2.93-2.93-7.2-4.39-12.8-4.39-4.88,0-9.24,1.1-13.08,3.29-3.84,2.2-6.83,5.24-8.96,9.15-2.14,3.9-3.2,8.41-3.2,13.54l-2.38-22.32c3.17-6.83,7.8-12.28,13.9-16.37,6.1-4.08,13.41-6.13,21.95-6.13,10.12,0,18.02,2.87,23.69,8.6,5.67,5.73,8.51,13.35,8.51,22.86v63.66h-23.23Z" fill="#242c33"/><path d="M948.27,266.83v-21.04l1.83.37c-1.59,6.83-5.43,12.29-11.52,16.37-6.1,4.09-13.35,6.13-21.77,6.13s-15.95-1.98-22.22-5.94c-6.28-3.96-11.13-9.54-14.54-16.74-3.42-7.19-5.12-15.67-5.12-25.43s1.77-18.48,5.3-25.79c3.54-7.32,8.51-12.99,14.91-17.01,6.4-4.02,13.87-6.04,22.41-6.04s16.03,2.1,21.77,6.31c5.73,4.21,9.27,10.03,10.61,17.47l-2.38.18v-60.55h23.23v131.7h-22.5ZM923.58,249.82c7.44,0,13.38-2.59,17.83-7.77,4.45-5.18,6.68-12.47,6.68-21.86s-2.26-16.65-6.77-21.77c-4.51-5.12-10.49-7.68-17.93-7.68s-13.23,2.59-17.74,7.77c-4.51,5.18-6.77,12.47-6.77,21.86s2.25,16.65,6.77,21.77c4.51,5.12,10.49,7.68,17.93,7.68Z" fill="#242c33"/><path d="M987.96,266.83v-93.29h22.5v21.95h.55v71.34h-23.05ZM1050.71,266.83v-60.18c0-5.49-1.37-9.54-4.12-12.16-2.74-2.62-6.62-3.93-11.62-3.93-4.39,0-8.41,1.04-12.07,3.11-3.66,2.07-6.56,5-8.69,8.78-2.14,3.78-3.2,8.17-3.2,13.17l-2.38-21.4c3.17-6.83,7.74-12.28,13.72-16.37,5.97-4.08,12.92-6.13,20.85-6.13,9.51,0,17.01,2.72,22.5,8.14,5.49,5.43,8.23,12.41,8.23,20.94v66.03h-23.23ZM1113.45,266.83v-60.18c0-5.49-1.34-9.54-4.02-12.16-2.68-2.62-6.53-3.93-11.52-3.93-4.51,0-8.6,1.04-12.26,3.11-3.66,2.07-6.53,5-8.6,8.78-2.07,3.78-3.11,8.17-3.11,13.17l-4.02-21.4c3.05-6.83,7.68-12.28,13.9-16.37,6.22-4.08,13.41-6.13,21.58-6.13,9.75,0,17.41,2.78,22.96,8.32,5.55,5.55,8.32,12.9,8.32,22.04v64.75h-23.23Z" fill="#242c33"/><path d="M1176.74,268.66c-9.39,0-16.86-2.35-22.41-7.04-5.55-4.69-8.32-11-8.32-18.93,0-8.53,3.11-15.3,9.33-20.3,6.22-5,15-8.35,26.34-10.06l29.08-4.39v14.63l-25.24,3.84c-5.49.85-9.6,2.38-12.35,4.57-2.74,2.2-4.12,5.25-4.12,9.15,0,3.54,1.28,6.25,3.84,8.14,2.56,1.89,6.1,2.83,10.61,2.83,6.58,0,12.07-1.65,16.46-4.94,4.39-3.29,6.58-7.32,6.58-12.07l2.56,14.08c-2.44,6.71-6.43,11.8-11.98,15.27-5.55,3.48-12.35,5.21-20.4,5.21ZM1209.11,266.83c-.61-2.44-1.07-5.12-1.37-8.05-.31-2.93-.46-6.46-.46-10.61h-.73v-44.27c0-4.88-1.37-8.57-4.12-11.07-2.74-2.5-6.92-3.75-12.53-3.75s-9.85,1.01-13.08,3.02c-3.23,2.01-5.21,4.91-5.95,8.69h-22.13c.97-8.66,5.12-15.67,12.44-21.04,7.32-5.36,17.13-8.05,29.45-8.05s22.5,2.9,29.08,8.69c6.58,5.79,9.88,14.3,9.88,25.52v42.25c0,2.93.21,5.92.64,8.96.43,3.05,1.07,6.28,1.92,9.69h-23.05Z" fill="#242c33"/><path d="M1245.7,266.83v-93.29h22.5v22.5h.55v70.79h-23.05ZM1268.75,218.17l-2.38-22.13c2.19-7.93,5.91-13.96,11.16-18.11,5.24-4.14,11.52-6.22,18.84-6.22,2.56,0,4.39.25,5.49.73v21.77c-.61-.24-1.46-.39-2.56-.46-1.1-.06-2.44-.09-4.02-.09-8.9,0-15.55,1.95-19.94,5.85-4.39,3.9-6.58,10.12-6.58,18.66Z" fill="#242c33"/><path d="M1309.72,266.83v-132.98h23.05v132.98h-23.05ZM1369.9,266.83l-42.44-48.47,41.16-44.81h27.8l-47.56,49.02,1.28-8.6,48.11,52.86h-28.35Z" fill="#242c33"/></g></g></svg>